<svg width="20" height="20" viewBox="0 0 20 20" fill="none" xmlns="http://www.w3.org/2000/svg">
<path d="M1.66675 13.1251C1.66675 13.1251 3.16286 12.5 5.83341 12.5C10.0001 12.5 13.3334 15 18.3334 15" stroke="#534FEB" stroke-linecap="round" stroke-linejoin="round"/>
<path d="M1.66675 17.5H18.3334" stroke="#534FEB" stroke-linecap="round" stroke-linejoin="round"/>
<path d="M10.4951 2.68968C8.12373 3.36973 6.58234 5.7102 6.67033 8.2292C6.6886 8.75239 6.69774 9.01398 6.9213 9.12968C7.14486 9.24537 7.3769 9.0814 7.84098 8.75346L8.87562 8.02233C9.03101 7.91252 9.21548 7.85962 9.40135 7.87156L11.8315 8.02768L13.8632 6.59202C14.0186 6.48221 14.203 6.42931 14.3889 6.44125L15.6567 6.52269C16.2006 6.55764 16.4726 6.57511 16.6077 6.36569C16.7427 6.15628 16.6329 5.92986 16.4134 5.47702C15.3214 3.22491 12.8795 2.00589 10.4951 2.68968Z" stroke="#534FEB" stroke-linecap="round" stroke-linejoin="round"/>
<path d="M12.0833 7.91669L13.75 14.1667M10.2381 2.50002L10 1.66669" stroke="#534FEB" stroke-linecap="round" stroke-linejoin="round"/>
</svg>
